# File created by Blade
# Date/Time:  Wed Jan 21 19:19:18 2015
# Frame Rate: 120.000 fps
#------------------------------------------------------
:FULLY-SPECIFIED
:DEGREES
815
root -0.845391 14.522247 -3.322673 50.827393 -43.470506 21.415964
RightUpLeg -181.793806 -21.295447 35.471455
RightLeg 98.731824 -0.000000 -0.000000
RightFoot 4.103115 23.377328 24.704462
RightToeBase 32.075071 -0.000000 -0.000000
LeftUpLeg -23.615151 25.695221 16.772515
LeftLeg 15.528090 -0.000000 -0.000000
LeftFoot -35.250588 29.157954 -12.501255
LeftToeBase 14.066027 -0.000000 -0.000000
Spine -32.446143 14.983984 22.994567
RightShoulder -9.002591 33.210919 -19.683696
RightArm 8.784616 -37.887818 55.618188
RightForeArm -20.993150 -0.000000 -0.007188
RightHand 61.184706 -0.000000 -57.178847
RightHandThumb1 -24.326973 -0.000000 -32.862282
LeftShoulder -18.807841 -26.940387 73.290062
LeftArm 72.789554 -39.745753 -15.634266
LeftForeArm 18.205153 -0.000000 13.423515
LeftHand -18.383227 -0.000000 8.599330
LeftHandThumb1 -26.253704 0.000000 33.147579
Head -41.791152 14.649460 51.689973
816
root -0.851009 14.514048 -3.333065 50.821957 -43.394592 21.406360
RightUpLeg -181.804239 -21.320395 35.459032
RightLeg 98.775191 -0.000000 -0.000000
RightFoot 3.931288 23.179188 23.962415
RightToeBase 31.936501 -0.000000 -0.000000
LeftUpLeg -23.633160 25.706716 16.843518
LeftLeg 15.541266 -0.000000 -0.000000
LeftFoot -35.255930 29.117853 -12.511498
LeftToeBase 14.066309 -0.000000 -0.000000
Spine -32.448835 14.928323 22.996381
RightShoulder -9.058486 33.144934 -19.589032
RightArm 8.851013 -37.938444 55.481054
RightForeArm -20.993094 -0.000000 0.171256
RightHand 61.046114 -0.000000 -57.335925
RightHandThumb1 -24.326973 -0.000000 -32.862282
LeftShoulder -18.738777 -26.958036 73.310949
LeftArm 72.860311 -39.702295 -15.514925
LeftForeArm 18.307186 -0.000000 13.472529
LeftHand -18.408211 -0.000000 8.692184
LeftHandThumb1 -26.253704 0.000000 33.147579
Head -41.733461 14.712559 51.866377
817
root -0.860790 14.503455 -3.342423 50.852567 -43.310047 21.325119
RightUpLeg -181.793177 -21.310097 35.485563
RightLeg 98.847641 -0.000000 -0.000000
RightFoot 3.746730 22.963750 23.163853
RightToeBase 31.698020 -0.000000 -0.000000
LeftUpLeg -23.614071 25.784046 16.964779
LeftLeg 15.539168 -0.000000 -0.000000
LeftFoot -35.235485 29.059276 -12.469237
LeftToeBase 14.052835 -0.000000 -0.000000
Spine -32.433102 14.902079 23.037570
RightShoulder -9.158764 32.981978 -19.474241
RightArm 9.113417 -38.096176 55.226177
RightForeArm -20.798901 -0.000000 0.265021
RightHand 60.968694 0.000000 -57.519402
RightHandThumb1 -24.326973 -0.000000 -32.862282
LeftShoulder -18.705146 -26.956649 73.354407
LeftArm 73.027504 -39.657323 -15.539502
LeftForeArm 18.535613 0.000000 13.537772
LeftHand -18.398574 -0.000000 8.739078
LeftHandThumb1 -26.253704 0.000000 33.147579
Head -41.677530 14.794965 51.973890
818
root -0.867714 14.495165 -3.351378 50.872793 -43.248605 21.276013
RightUpLeg -181.774980 -21.305143 35.462612
RightLeg 98.896001 -0.000000 -0.000000
RightFoot 3.625416 22.706510 22.765183
RightToeBase 31.823263 -0.000000 -0.000000
LeftUpLeg -23.595877 25.801731 17.060010
LeftLeg 15.522889 -0.000000 -0.000000
LeftFoot -35.225114 29.051267 -12.455067
LeftToeBase 14.073493 -0.000000 -0.000000
Spine -32.423022 14.888892 23.045024
RightShoulder -9.236246 32.971023 -19.409234
RightArm 9.111165 -38.157546 55.149216
RightForeArm -20.805016 -0.000000 0.409630
RightHand 60.855828 -0.000000 -57.705156
RightHandThumb1 -24.326973 -0.000000 -32.862282
LeftShoulder -18.656944 -26.985679 73.393575
LeftArm 73.196275 -39.605221 -15.593289
LeftForeArm 18.767532 -0.000000 13.584317
LeftHand -18.480070 -0.000000 8.807767
LeftHandThumb1 -26.253704 0.000000 33.147579
Head -41.643544 14.870945 52.070180
819
root -0.873527 14.486429 -3.358723 50.882457 -43.204214 21.259614
RightUpLeg -181.773665 -21.306880 35.411697
RightLeg 98.939927 -0.000000 -0.000000
RightFoot 3.386248 22.537882 21.866879
RightToeBase 31.634911 -0.000000 -0.000000
LeftUpLeg -23.578864 25.784266 17.127587
LeftLeg 15.497232 -0.000000 -0.000000
LeftFoot -35.234252 29.029506 -12.487256
LeftToeBase 14.089121 -0.000000 -0.000000
Spine -32.424165 14.864975 23.032418
RightShoulder -9.305379 32.821515 -19.338197
RightArm 9.273654 -38.099134 55.003594
RightForeArm -20.810608 0.000000 0.533569
RightHand 60.760521 -0.000000 -57.892854
RightHandThumb1 -24.326973 -0.000000 -32.862282
LeftShoulder -18.590365 -26.996421 73.407328
LeftArm 73.219427 -39.541556 -15.471411
LeftForeArm 18.822168 -0.000000 13.689753
LeftHand -18.447384 -0.000000 8.963159
LeftHandThumb1 -26.253704 0.000000 33.147579
Head -41.609613 14.935346 52.156443
820
root -0.879230 14.479103 -3.367300 50.908273 -43.156729 21.211693
RightUpLeg -181.747638 -21.305926 35.366553
RightLeg 98.979978 -0.000000 -0.000000
RightFoot 3.096796 22.401784 21.003973
RightToeBase 31.484608 -0.000000 -0.000000
LeftUpLeg -23.551064 25.758561 17.226666
LeftLeg 15.473013 -0.000000 -0.000000
LeftFoot -35.237573 29.045555 -12.507771
LeftToeBase 14.098081 -0.000000 -0.000000
Spine -32.409414 14.853130 23.044437
RightShoulder -9.341683 32.704080 -19.268943
RightArm 9.385384 -38.048527 54.888141
RightForeArm -20.784951 -0.000000 0.627785
RightHand 60.754003 0.000000 -57.939698
RightHandThumb1 -24.326973 -0.000000 -32.862282
LeftShoulder -18.550899 -27.004379 73.432989
LeftArm 73.336662 -39.468396 -15.482072
LeftForeArm 18.956024 -0.000000 13.789145
LeftHand -18.607907 -0.000000 9.049407
LeftHandThumb1 -26.253704 0.000000 33.147579
Head -41.578548 14.989833 52.225435
821
root -0.885755 14.470787 -3.375418 50.939595 -43.104396 21.179071
RightUpLeg -181.753727 -21.327606 35.320780
RightLeg 99.027481 -0.000000 -0.000000
RightFoot 2.802322 22.288966 20.252843
RightToeBase 31.608135 -0.000000 -0.000000
LeftUpLeg -23.524548 25.682299 17.330277
LeftLeg 15.430093 -0.000000 -0.000000
LeftFoot -35.225831 29.090166 -12.533761
LeftToeBase 14.062446 -0.000000 -0.000000
Spine -32.417107 14.827210 23.055429
RightShoulder -9.366661 32.602799 -19.210890
RightArm 9.461212 -37.940200 54.819924
RightForeArm -20.819650 0.000000 0.718338
RightHand 60.678436 -0.000000 -58.239569
RightHandThumb1 -24.326973 -0.000000 -32.862282
LeftShoulder -18.511354 -26.957244 73.432991
LeftArm 73.519112 -39.441947 -15.582483
LeftForeArm 19.070792 -0.000000 13.865169
LeftHand -18.531313 -0.000000 9.124339
LeftHandThumb1 -26.253704 0.000000 33.147579
Head -41.551314 14.997226 52.309087
822
root -0.891406 14.463052 -3.384533 50.972003 -43.063372 21.151975
RightUpLeg -181.752408 -21.354410 35.266534
RightLeg 99.082623 -0.000000 -0.000000
RightFoot 2.824786 22.157928 20.347627
RightToeBase 31.291989 -0.000000 -0.000000
LeftUpLeg -23.511564 25.612476 17.420455
LeftLeg 15.401757 -0.000000 -0.000000
LeftFoot -35.233007 29.129949 -12.568928
LeftToeBase 14.055491 -0.000000 -0.000000
Spine -32.422692 14.813264 23.046676
RightShoulder -9.391681 32.589969 -19.187855
RightArm 9.409249 -37.855136 54.840011
RightForeArm -20.838157 -0.000000 0.813462
RightHand 60.651812 -0.000000 -58.296036
RightHandThumb1 -24.326973 -0.000000 -32.862282
LeftShoulder -18.473486 -26.911221 73.427290
LeftArm 73.775088 -39.440157 -15.790575
LeftForeArm 19.236747 0.000000 13.939317
LeftHand -18.532734 -0.000000 9.049526
LeftHandThumb1 -26.253704 0.000000 33.147579
Head -41.515388 15.004544 52.425561
823
root -0.895335 14.456058 -3.393460 51.002660 -43.035200 21.123367
RightUpLeg -181.743435 -21.389060 35.201307
RightLeg 99.113994 -0.000000 -0.000000
RightFoot 2.815029 22.025863 20.509045
RightToeBase 31.323587 -0.000000 -0.000000
LeftUpLeg -23.503364 25.543586 17.503965
LeftLeg 15.399181 -0.000000 -0.000000
LeftFoot -35.264746 29.169629 -12.624157
LeftToeBase 14.052246 -0.000000 -0.000000
Spine -32.421258 14.811081 23.027002
RightShoulder -9.393881 32.567641 -19.160814
RightArm 9.338639 -37.754453 54.859242
RightForeArm -20.886276 -0.000000 0.914738
RightHand 60.599906 -0.000000 -58.422941
RightHandThumb1 -24.326973 -0.000000 -32.862282
LeftShoulder -18.403883 -26.877614 73.406465
LeftArm 73.900872 -39.420602 -15.795361
LeftForeArm 19.331694 -0.000000 13.947963
LeftHand -18.375117 0.000000 9.131091
LeftHandThumb1 -26.253704 0.000000 33.147579
Head -41.468484 14.993058 52.558637
824
root -0.898610 14.450943 -3.404920 51.043003 -42.987649 21.107240
RightUpLeg -181.759069 -21.429778 35.156632
RightLeg 99.148608 -0.000000 -0.000000
RightFoot 2.700834 21.941077 20.498650
RightToeBase 31.459691 -0.000000 -0.000000
LeftUpLeg -23.543818 25.463456 17.584924
LeftLeg 15.423126 -0.000000 -0.000000
LeftFoot -35.315135 29.181921 -12.707486
LeftToeBase 14.086074 -0.000000 -0.000000
Spine -32.427333 14.793374 23.013138
RightShoulder -9.411454 32.560506 -19.141967
RightArm 9.294031 -37.711880 54.872156
RightForeArm -20.888397 -0.000000 0.992772
RightHand 60.559650 -0.000000 -58.509703
RightHandThumb1 -24.326973 -0.000000 -32.862282
LeftShoulder -18.356299 -26.811379 73.368514
LeftArm 74.006901 -39.418404 -15.724015
LeftForeArm 19.231150 -0.000000 13.991345
LeftHand -18.388499 -0.000000 9.047530
LeftHandThumb1 -26.253704 0.000000 33.147579
Head -41.453428 15.001448 52.697878
825
root -0.902973 14.443855 -3.415200 51.076641 -42.952573 21.085604
RightUpLeg -181.767770 -21.463269 35.111360
RightLeg 99.189320 -0.000000 -0.000000
RightFoot 2.650958 21.875627 20.546723
RightToeBase 31.423736 -0.000000 -0.000000
LeftUpLeg -23.561861 25.406769 17.662199
LeftLeg 15.439026 -0.000000 -0.000000
LeftFoot -35.325384 29.211514 -12.744269
LeftToeBase 14.052342 -0.000000 -0.000000
Spine -32.425227 14.794963 22.984618
RightShoulder -9.437254 32.489508 -19.133001
RightArm 9.305277 -37.643129 54.871426
RightForeArm -20.905318 -0.000000 1.040973
RightHand 60.526464 -0.000000 -58.670777
RightHandThumb1 -24.326973 -0.000000 -32.862282
LeftShoulder -18.319920 -26.774475 73.331298
LeftArm 74.171369 -39.413557 -15.724673
LeftForeArm 19.207602 -0.000000 14.018705
LeftHand -18.382293 -0.000000 8.785423
LeftHandThumb1 -26.253704 0.000000 33.147579
Head -41.467160 15.005599 52.811886
